<?xml version="1.0" encoding="UTF-8"?>
<!DOCTYPE svg PUBLIC "-//W3C//DTD SVG 1.1//EN" "http://www.w3.org/Graphics/SVG/1.1/DTD/svg11.dtd">
<!-- Creator: CorelDRAW X7 -->
<svg xmlns="http://www.w3.org/2000/svg" xml:space="preserve" width="176.341mm" height="52.0386mm" version="1.1" style="shape-rendering:geometricPrecision; text-rendering:geometricPrecision; image-rendering:optimizeQuality; fill-rule:evenodd; clip-rule:evenodd"
viewBox="0 0 28280 8345"
 xmlns:xlink="http://www.w3.org/1999/xlink">
 <defs>
  <style type="text/css">
   <![CDATA[
    .fil0 {fill:#2C2C2C}
    .fil1 {fill:#2C2C2C;fill-rule:nonzero}
   ]]>
  </style>
 </defs>
 <g id="Camada_x0020_1">
  <metadata id="CorelCorpID_0Corel-Layer"/>
  <path class="fil0" d="M3653 3661l848 0 0 1918 1222 0 0 849 -1222 0 0 220 0 845 0 852c-469,0 -848,-380 -848,-848l0 -4 0 0 0 -1065 0 -849 0 -1918zm23790 1918l0 849 -1222 0 0 220 0 845 0 852c-469,0 -848,-380 -848,-848l0 -4 0 0 0 -1065 0 -849 0 -1918 848 0 0 1918 1222 0zm837 1918l0 848 -1765 0 0 -848 1765 0zm0 -3836l0 849 -1765 0 0 -849 1765 0zm-5156 4684l-848 0 0 -4684 848 0 0 4684zm1106 -2021l0 -2663 849 0 0 4684 -849 0 -812 -1935 0 -2021 812 1935zm-4758 2021l-849 0 1071 -3995 424 1583 -646 2412zm1662 0l848 0 -1255 -4684 -849 0 1256 4684zm-3441 -2766l0 849 -849 0 0 1917 -848 0 0 -1917 0 -849 0 -1918 848 0 0 1918 849 0zm293 849l0 -849 0 -849 0 -220 -848 0 0 -849 848 0 849 0 0 849 0 1069c0,469 -380,849 -849,849zm-4794 1917l-849 0 1071 -3995 424 1583 -646 2412zm1662 0l848 0 -1255 -4684 -849 0 1256 4684zm-2732 -4684l0 849 735 0 0 -849 -735 0zm-2172 0l0 849 1029 0 0 3835 849 0 0 -3835 0 -849 -849 0 -1029 0zm-2248 4684l-849 0 0 -4684 849 0 0 4684zm1106 -2021l0 -2663 849 0 0 4684 -849 0 -812 -1935 0 -2021 812 1935zm-7959 -2663l-849 0 1071 3996 424 -1584 -646 -2412zm1661 0l849 0 -1255 4684 -849 0 1255 -4684zm4050 3836l0 848 -1765 0 0 -848 1765 0zm0 -3836l0 849 -1765 0 0 -849 1765 0z"/>
  <path class="fil1" d="M8537 1982c-28,86 -68,148 -121,187 -33,14 -50,137 -50,369 0,70 -20,128 -60,177 -40,48 -109,88 -205,118 -20,-36 -39,-79 -57,-129 -18,-49 -33,-95 -47,-137l-46 -195 -328 187c-180,91 -327,137 -440,137 -213,0 -377,-126 -490,-378 -83,-180 -125,-375 -125,-586 0,-158 19,-311 56,-459 38,-148 97,-301 179,-458 82,-158 176,-304 284,-439 108,-134 232,-259 370,-376l262 104 -474 594c-61,89 -115,178 -164,268 -48,90 -85,174 -110,251 -64,191 -95,410 -95,657 0,69 7,130 22,183 16,52 41,105 77,158 86,124 194,186 324,186 86,0 170,-18 253,-56 83,-37 168,-93 254,-168 166,-158 249,-310 249,-457 0,-27 -6,-66 -17,-116l-33 -83 -108 42 -145 25c-58,0 -112,-17 -162,-50 -22,-14 -44,-32 -67,-54 -22,-22 -47,-57 -74,-104 110,-53 217,-96 319,-129 47,-11 99,-21 156,-29 57,-8 109,-12 156,-12 124,0 242,26 353,79l54 70 -67 237c-16,75 -25,142 -25,203l21 29c33,31 60,59 79,85 19,27 33,50 42,69z"/>
  <path id="1" class="fil1" d="M10056 2525l-4 112c-8,20 -14,36 -17,50 -13,42 -36,87 -66,137 -61,-22 -110,-41 -147,-56 -38,-15 -90,-38 -156,-68 -55,-19 -93,-32 -112,-37 -56,-17 -110,-25 -162,-25 -39,0 -70,1 -94,4 -23,3 -71,13 -143,29l-153 17c-139,0 -243,-58 -312,-175 -36,-77 -54,-185 -54,-323l0 -108 0 -752c0,-36 18,-77 54,-124 36,0 61,-3 75,-9l145 -16c0,407 24,708 71,903 47,195 111,292 191,292 50,0 126,-13 228,-41l274 -83c-19,-119 -32,-219 -39,-301 -7,-82 -11,-185 -11,-310l0 -303 0 -228 324 0 0 738c0,70 4,129 13,179 0,8 14,61 41,158 36,166 54,279 54,340z"/>
  <path id="2" class="fil1" d="M10608 2738c-132,22 -213,36 -240,41l-183 13c0,-39 -3,-103 -8,-191 -6,-89 -9,-140 -9,-154l0 -225c0,-169 9,-302 27,-398 17,-97 43,-179 76,-245 33,-67 82,-129 146,-188 67,139 107,257 121,354 14,97 21,209 21,336l0 241 0 191c0,36 2,66 8,90 5,23 19,68 41,135z"/>
  <path id="3" class="fil1" d="M11925 2700c-47,11 -122,31 -225,58 -66,17 -125,30 -176,38 -51,8 -103,15 -156,21 -52,5 -109,8 -170,8 -111,0 -203,-13 -278,-37 -114,-39 -170,-111 -170,-216 0,-36 8,-95 25,-175 13,-41 22,-71 27,-90 4,-18 6,-35 6,-52 0,-66 -14,-159 -42,-278 -22,-133 -33,-223 -33,-270 0,-97 13,-172 39,-226 27,-54 106,-110 239,-169 42,200 69,369 83,507l21 474c0,86 25,149 75,187 55,36 146,54 274,54l195 0c75,0 129,-5 162,-16 22,5 41,21 58,47 17,27 32,72 46,135z"/>
  <path id="4" class="fil1" d="M13627 2489c0,77 -28,139 -83,186 -22,20 -55,40 -100,61 -44,20 -92,39 -145,56l-91 -295c-36,-69 -105,-104 -208,-104 -119,0 -203,2 -253,6 -50,4 -93,15 -129,31 -97,34 -159,125 -187,274 -94,0 -169,-23 -224,-70 -55,-47 -100,-119 -133,-216 -16,-42 -28,-92 -35,-152 -7,-59 -10,-139 -10,-238l12 -333 25 -340 273 8 66 341 33 353c28,94 121,141 281,141 39,0 79,-1 121,-4 41,-3 83,-9 128,-17l219 -41 -17 -133 17 -520c0,-53 21,-97 62,-133 11,-3 32,-7 63,-14 30,-7 78,-16 145,-24 14,53 24,103 31,148 7,46 12,80 15,102l0 245 0 199c0,50 11,107 35,170 24,78 45,146 62,205 9,33 18,69 27,108z"/>
  <path id="5" class="fil1" d="M15280 2684c-47,19 -98,35 -152,47 -54,13 -111,25 -172,36 -125,14 -265,21 -420,21l-269 0 -154 0c-28,-3 -49,-6 -62,-9 -14,-3 -35,-11 -63,-25 -99,-47 -181,-179 -245,-396 -25,-97 -45,-192 -62,-284 -17,-91 -25,-167 -25,-225 0,-55 2,-93 4,-114 3,-22 16,-62 38,-121 22,-60 69,-120 141,-181 39,17 77,33 116,50 33,19 67,37 100,55 61,36 119,54 174,54 42,0 80,-2 114,-7 35,-4 80,-11 135,-22 114,-25 198,-38 254,-38 130,0 229,68 299,204 -36,19 -85,35 -146,46 -61,11 -140,23 -236,34 -222,26 -358,75 -407,148l58 4 162 0 149 0 154 0 129 0c24,0 51,2 78,4 28,3 65,10 113,21 -64,175 -194,262 -391,262l-182 0 -129 -13c-108,0 -162,43 -162,129 0,100 142,149 428,149 163,0 294,14 394,42 100,28 179,71 237,129z"/>
  <path id="6" class="fil1" d="M17364 2792l-112 0 -145 -13 -212 -256c-69,-78 -161,-117 -274,-117 -75,0 -150,4 -224,12 -97,17 -175,29 -233,37 -210,22 -325,43 -345,63 -11,27 -22,54 -35,81 -12,26 -24,50 -35,72 -42,81 -104,121 -187,121 -86,0 -158,-92 -216,-274 -47,-172 -70,-378 -70,-619 0,-25 5,-49 16,-73 11,-23 25,-45 42,-64 30,-17 213,-44 548,-83l573 -58c99,0 202,11 307,33 155,41 233,104 233,187 0,25 -14,54 -42,89 -28,35 -72,74 -133,118l-129 100c191,36 342,92 453,168 72,49 127,113 164,189 37,77 56,172 56,287zm-909 -893l-83 -8 -169 -5c-154,0 -280,12 -377,34 -146,25 -218,76 -218,153 0,34 16,65 50,94 32,29 81,43 144,43 96,0 226,-41 388,-124 127,-61 215,-123 265,-187z"/>
  <path id="7" class="fil1" d="M20046 2601c0,61 -13,113 -39,157 -26,45 -80,67 -160,67 -77,0 -136,-31 -174,-91 -25,-50 -38,-115 -38,-196l13 -191 16 -132 0 -204 0 -108c0,-30 0,-61 0,-91 -7,-22 -11,-38 -11,-46l-18 -112c-79,113 -159,223 -237,328 -79,105 -141,187 -188,245 -235,304 -467,457 -699,457 -149,0 -309,-119 -479,-357l-219 -403 16 158 33 278c0,99 -27,182 -81,247 -54,65 -143,118 -267,160 -14,-56 -27,-115 -38,-179 -11,-63 -19,-111 -25,-141l0 -345 0 -178 0 -191c0,-105 46,-184 137,-237 94,-44 204,-66 332,-66 38,0 81,38 128,116 47,78 91,188 133,332 63,263 162,395 298,395 55,0 121,-25 197,-75 76,-50 165,-123 267,-220l385 -449c31,-38 69,-65 116,-79l171 -45 20 75 -170 54c-14,2 -25,5 -33,8 -8,3 -17,5 -25,8 19,-14 37,-25 54,-33 -3,0 -1,-1 6,-2 7,-2 33,-8 79,-21 46,-12 114,-59 206,-140 124,89 211,255 261,499 6,55 13,143 21,263 8,121 12,229 12,327l0 91 0 67z"/>
  <path id="8" class="fil1" d="M21711 2684c-47,19 -97,35 -151,47 -54,13 -111,25 -172,36 -125,14 -265,21 -420,21l-270 0 -153 0c-28,-3 -49,-6 -63,-9 -13,-3 -34,-11 -62,-25 -100,-47 -181,-179 -245,-396 -25,-97 -46,-192 -62,-284 -17,-91 -25,-167 -25,-225 0,-55 1,-93 4,-114 3,-22 15,-62 37,-121 23,-60 70,-120 142,-181 38,17 77,33 116,50 33,19 66,37 100,55 60,36 119,54 174,54 41,0 80,-2 114,-7 35,-4 80,-11 135,-22 114,-25 198,-38 253,-38 130,0 230,68 299,204 -36,19 -84,35 -145,46 -61,11 -140,23 -237,34 -221,26 -357,75 -407,148l59 4 161 0 150 0 154 0 128 0c25,0 52,2 79,4 28,3 65,10 112,21 -63,175 -193,262 -390,262l-183 0 -128 -13c-108,0 -162,43 -162,129 0,100 142,149 427,149 164,0 295,14 395,42 99,28 178,71 236,129z"/>
 </g>
</svg>
